<svg width="44" height="45" viewBox="0 0 44 45" fill="none" xmlns="http://www.w3.org/2000/svg">
<rect x="0.5" y="1.14746" width="43" height="43" rx="6.5" fill="#6363DB"/>
<rect x="0.5" y="1.14746" width="43" height="43" rx="6.5" stroke="#4F4FB9"/>
<path d="M25.54 30.1475L24.5 26.7475H19.3L18.26 30.1475H15L20.04 15.8075H23.74L28.8 30.1475H25.54ZM22.74 20.8875C22.6733 20.6608 22.5867 20.3741 22.48 20.0275C22.3733 19.6808 22.2667 19.3275 22.16 18.9675C22.0533 18.6075 21.9667 18.2941 21.9 18.0275C21.8333 18.2941 21.74 18.6275 21.62 19.0275C21.5133 19.4141 21.4067 19.7875 21.3 20.1475C21.2067 20.4941 21.1333 20.7408 21.08 20.8875L20.06 24.2075H23.78L22.74 20.8875Z" fill="white"/>
</svg>
